# xmcd CD database file
#
# Track frame offsets:
#	150
#	17099
#	28468
#	39280
#	52070
#	62063
#	72119
#	85874
#	99402
#	109935
#	124686
#	137319
#	150308
#	163042
#	177058
#	194456
#	215776
#	227364
#	235713
#	252697
#	267643
#	285898
#
# Disc length: 3917 seconds
#
# Revision: 0
# Processed by: cddbd v1.5.2PL0 Copyright (c) Steve Scherf et al.
# Submitted via: CDex 1.70beta2
#
DISCID=300f4b16
DTITLE=Johnny Cash - Various
DYEAR=2006
DGENRE=Country
TTITLE0=A Boy Named Sue
TTITLE1=A Thing Called Love
TTITLE2=Cry Cry Cry
TTITLE3=Folsom Prison Blues
TTITLE4=Get Rhythm
TTITLE5=Hey Porter
TTITLE6=Highwayman
TTITLE7=I Walk The Line
TTITLE8=If I Were A Carpenter
TTITLE9=I've Been Everywhere
TTITLE10=Jackson
TTITLE11=Man In Black
TTITLE12=Peace in the Valley
TTITLE13=San Quentin
TTITLE14=Ballad of Ira Hayes
TTITLE15=The Wanderer
TTITLE16=These Hands
TTITLE17=The Wall
TTITLE18=Sunday Morning Coming Down
TTITLE19=Personal Jesus
TTITLE20=Orange Blossom Special
TTITLE21=I Got Stripes
EXTD=YEAR: 2006
EXTT0=
EXTT1=
EXTT2=
EXTT3=
EXTT4=
EXTT5=
EXTT6=
EXTT7=
EXTT8=
EXTT9=
EXTT10=
EXTT11=
EXTT12=
EXTT13=
EXTT14=
EXTT15=
EXTT16=
EXTT17=
EXTT18=
EXTT19=
EXTT20=
EXTT21=
PLAYORDER=
